<?xml version="1.0" encoding="UTF-8"?>
<svg id="SVGDoc" width="9" height="19" xmlns="http://www.w3.org/2000/svg" version="1.1" xmlns:xlink="http://www.w3.org/1999/xlink" xmlns:avocode="https://avocode.com/" viewBox="0 0 9 19"><defs></defs><desc>Generated with Avocode.</desc><g><g><title>facebook</title><path d="M5.54412,18.51779v0h-3.68524v0v-8.90821v0h-1.84202v0v-3.0715v0h1.84202v0v-1.84236c0,-2.50484 1.04004,-3.99419 3.99351,-3.99419h2.45982v0v3.07086v0h-1.53702c-1.15007,0 -1.22637,0.42842 -1.22637,1.22962l-0.00471,1.53607v0h2.78562v0l-0.32604,3.0715v0h-2.45959v0z" fill="#b8b8b8" fill-opacity="1"></path><path d="M5.54412,18.51779v0h-3.68524v0v-8.90821v0h-1.84202v0v-3.0715v0h1.84202v0v-1.84236c0,-2.50484 1.04004,-3.99419 3.99351,-3.99419h2.45982v0v3.07086v0h-1.53702c-1.15007,0 -1.22637,0.42842 -1.22637,1.22962l-0.00471,1.53607v0h2.78562v0l-0.32604,3.0715v0h-2.45959v0z" fill="#ffffff" fill-opacity="1"></path></g></g></svg>