<?xml version="1.0" encoding="UTF-8"?>
<svg id="SVGDoc" width="18" height="15" xmlns="http://www.w3.org/2000/svg" version="1.1" xmlns:xlink="http://www.w3.org/1999/xlink" xmlns:avocode="https://avocode.com/" viewBox="0 0 18 15"><defs></defs><desc>Generated with Avocode.</desc><g><g><title>twitter</title><path d="M17.35319,2.48242c-0.65535,0.28556 -1.35946,0.47849 -2.09832,0.5649c0.75418,-0.44293 1.33353,-1.14575 1.6064,-1.9833c-0.70614,0.41088 -1.48809,0.70904 -2.32035,0.87008c-0.66638,-0.69676 -1.616,-1.13204 -2.66671,-1.13204c-2.01768,0 -3.65382,1.60463 -3.65382,3.58474c0,0.28046 0.03237,0.55422 0.09471,0.81666c-3.03644,-0.14908 -5.72848,-1.57641 -7.53063,-3.74482c-0.31447,0.52919 -0.49472,1.14448 -0.49472,1.80138c0,1.24397 0.64486,2.34157 1.62536,2.98412c-0.59897,-0.01945 -1.16235,-0.17937 -1.6548,-0.44851c-0.00048,0.01531 -0.00048,0.0295 -0.00048,0.0448c0,1.73697 1.25933,3.18582 2.93088,3.51475c-0.30661,0.08211 -0.62943,0.12612 -0.96262,0.12612c-0.23544,0 -0.46432,-0.02232 -0.68742,-0.06426c0.46486,1.4243 1.81419,2.46083 3.41314,2.48953c-1.25057,0.9608 -2.82574,1.53479 -4.5377,1.53479c-0.2948,0 -0.58568,-0.01722 -0.8716,-0.0507c1.61695,1.01724 3.53742,1.61085 5.60081,1.61085c6.7203,0 10.39535,-5.46186 10.39535,-10.19905c0,-0.15578 -0.00352,-0.31043 -0.01067,-0.46446c0.71406,-0.50543 1.33324,-1.13667 1.82319,-1.85559z" fill="#000000" fill-opacity="1"></path><path d="M17.35319,2.48242c-0.65535,0.28556 -1.35946,0.47849 -2.09832,0.5649c0.75418,-0.44293 1.33353,-1.14575 1.6064,-1.9833c-0.70614,0.41088 -1.48809,0.70904 -2.32035,0.87008c-0.66638,-0.69676 -1.616,-1.13204 -2.66671,-1.13204c-2.01768,0 -3.65382,1.60463 -3.65382,3.58474c0,0.28046 0.03237,0.55422 0.09471,0.81666c-3.03644,-0.14908 -5.72848,-1.57641 -7.53063,-3.74482c-0.31447,0.52919 -0.49472,1.14448 -0.49472,1.80138c0,1.24397 0.64486,2.34157 1.62536,2.98412c-0.59897,-0.01945 -1.16235,-0.17937 -1.6548,-0.44851c-0.00048,0.01531 -0.00048,0.0295 -0.00048,0.0448c0,1.73697 1.25933,3.18582 2.93088,3.51475c-0.30661,0.08211 -0.62943,0.12612 -0.96262,0.12612c-0.23544,0 -0.46432,-0.02232 -0.68742,-0.06426c0.46486,1.4243 1.81419,2.46083 3.41314,2.48953c-1.25057,0.9608 -2.82574,1.53479 -4.5377,1.53479c-0.2948,0 -0.58568,-0.01722 -0.8716,-0.0507c1.61695,1.01724 3.53742,1.61085 5.60081,1.61085c6.7203,0 10.39535,-5.46186 10.39535,-10.19905c0,-0.15578 -0.00352,-0.31043 -0.01067,-0.46446c0.71406,-0.50543 1.33324,-1.13667 1.82319,-1.85559z" fill="#ffffff" fill-opacity="1"></path></g></g></svg>